
<svg xmlns="http://www.w3.org/2000/svg" viewBox="0 0 55 55">
	<style type="text/css">
		.st0{fill:url(#SVGID_1_);}
		.st1{fill:url(#SVGID_2_);}
		.st2{fill:url(#SVGID_3_);}
	</style>
	<linearGradient id="SVGID_1_" gradientUnits="userSpaceOnUse" x1="-93.8953" y1="-249.6682" x2="-49.144" y2="-249.6682" gradientTransform="matrix(0.6278 0.7783 0.7783 -0.6278 267.3606 -72.7799)">
		<stop  offset="0" style="stop-color:#FFFFFF"/>
		<stop  offset="0.5368" style="stop-color:#EEEEEE"/>
		<stop  offset="1" style="stop-color:#E5E5E5"/>
	</linearGradient>
	<path class="st0" d="M13.9,46.5C3.4,39,1.1,24.3,8.6,13.8C16.1,3.3,30.7,0.9,41.1,8.5c10.5,7.6,12.8,22.2,5.3,32.7
		C38.9,51.7,24.3,54.1,13.9,46.5L13.9,46.5z"/>
	<linearGradient id="SVGID_2_" gradientUnits="userSpaceOnUse" x1="-94.6915" y1="-249.6682" x2="-48.3474" y2="-249.6682" gradientTransform="matrix(0.6278 0.7783 0.7783 -0.6278 267.3606 -72.7799)">
		<stop  offset="0" style="stop-color:#FF5E4E"/>
		<stop  offset="0.1505" style="stop-color:#FF5C6D"/>
		<stop  offset="0.1694" style="stop-color:#FF5E73"/>
		<stop  offset="0.2476" style="stop-color:#FF6385"/>
		<stop  offset="0.3026" style="stop-color:#FF658C"/>
		<stop  offset="0.3685" style="stop-color:#E4729F"/>
		<stop  offset="0.4329" style="stop-color:#D17CAD"/>
		<stop  offset="0.4772" style="stop-color:#CA7FB2"/>
		<stop  offset="0.5528" style="stop-color:#9D6CFF"/>
		<stop  offset="0.5934" style="stop-color:#9870FF;stop-opacity:0.9882"/>
		<stop  offset="0.6432" style="stop-color:#897AFE;stop-opacity:0.9725"/>
		<stop  offset="0.6979" style="stop-color:#708CFE;stop-opacity:0.9529"/>
		<stop  offset="0.7556" style="stop-color:#4DA4FD;stop-opacity:0.9333"/>
		<stop  offset="0.8022" style="stop-color:#2CBCFC;stop-opacity:0.9176"/>
		<stop  offset="1" style="stop-color:#00C7FF"/>
	</linearGradient>
	<path class="st1" d="M27.5,52c-5.1,0-10-1.6-14.2-4.6h0C8,43.5,4.5,37.9,3.5,31.4c-1-6.4,0.5-12.9,4.3-18.2
		c3.8-5.3,9.4-8.8,15.9-9.9c6.4-1,12.9,0.5,18.1,4.3c5.3,3.8,8.8,9.5,9.8,15.9c1,6.4-0.5,12.9-4.3,18.2c-3.8,5.3-9.4,8.8-15.9,9.9
		C30.1,51.9,28.8,52,27.5,52z M14.5,45.6c4.8,3.5,10.7,4.9,16.6,3.9c5.9-1,11-4.2,14.5-9c7.2-10,4.9-24-5.1-31.2
		c-4.8-3.5-10.7-4.9-16.6-3.9c-5.9,1-11,4.2-14.5,9C2.3,24.4,4.5,38.4,14.5,45.6L14.5,45.6z"/>
	<linearGradient id="SVGID_3_" gradientUnits="userSpaceOnUse" x1="14.7507" y1="45.3395" x2="41.7058" y2="10.3536" gradientTransform="matrix(1 0 0 -1 0 56)">
		<stop  offset="0" style="stop-color:#FF5E4E"/>
		<stop  offset="0.249" style="stop-color:#FF5C6D"/>
		<stop  offset="0.3765" style="stop-color:#FF658C"/>
		<stop  offset="0.497" style="stop-color:#CA7FB2"/>
		<stop  offset="0.6267" style="stop-color:#9D6CFF"/>
		<stop  offset="0.7628" style="stop-color:#2CBCFC;stop-opacity:0.9176"/>
		<stop  offset="1" style="stop-color:#00C7FF"/>
	</linearGradient>
	<path class="st2" d="M35.8,38.7c1.5-0.4,2.5-1.5,2.9-3l0.1-0.4l0-11.7c0-8.8,0-11.7,0-11.9c-0.1-0.2-0.1-0.3-0.2-0.4
		c-0.2-0.1-0.3-0.1-0.6-0.1c-0.1,0-0.7,0.1-1.1,0.2c-2.1,0.4-14.5,2.9-14.7,2.9c-0.3,0.1-0.7,0.4-0.8,0.7l-0.1,0.3
		c0,0-0.1,18.3-0.2,18.5c-0.1,0.3-0.5,0.6-0.8,0.7c-0.1,0-0.7,0.2-1.2,0.3c-2.5,0.5-3.4,0.9-4.2,1.6c-0.4,0.4-0.8,1-0.9,1.7
		c-0.1,0.6-0.1,1.5,0.1,2c0.2,0.6,0.5,1.1,1,1.4c0.4,0.3,0.8,0.5,1.4,0.7c1.1,0.3,3.3,0,4.4-0.7c0.5-0.3,1-0.8,1.3-1.3
		c0.1-0.2,0.3-0.5,0.4-0.8c0.4-0.9,0.4-17.3,0.4-17.5c0.1-0.4,0.3-0.6,0.6-0.7c0.3-0.1,12.2-2.4,12.6-2.5c0.3,0,0.6,0.1,0.7,0.2
		c0.1,0,0.2,0.1,0.2,0.2c0.1,0.1,0.1,0.4,0.1,5.6c0,6,0,5.8-0.3,6.2c-0.2,0.3-0.5,0.4-1.7,0.6c-1.8,0.4-2.5,0.6-3.2,0.9
		c-0.9,0.4-1.4,0.9-1.8,1.7c-0.3,0.6-0.4,1-0.4,1.5c0,1,0.3,1.8,1.1,2.5c0.1,0.1,0.1,0.1,0.2,0.2c0.4,0.3,0.8,0.5,1.3,0.6
		C33.2,39.1,34.8,39,35.8,38.7z"/>
</svg>
