<svg xmlns="http://www.w3.org/2000/svg" width="0" height="0">

	<svg id="icon-sidebar" viewBox="0 0 13 13">
		<style type="text/css">
			.st0{fill:#333;}
		</style>
		<path class="st0" d="M12,1H5H4H1H0v1v9v1h1h3h1h7h1v-1V2V1H12z M1,11V2h3v9H1z M12,11H5V2h7V11z"/>
		<rect x="2" y="3" class="st0" width="1" height="1"/>
		<rect x="2" y="5" class="st0" width="1" height="1"/>
	</svg>

	<svg id="icon-play" viewBox="0 0 13 13">
		<style type="text/css">
			.st0{fill:#333;}
		</style>
		<path class="st0" d="M11.8,6.8L1.5,12.5c-0.3,0.2-0.4,0-0.4-0.3V0.8c0-0.3,0.2-0.4,0.4-0.3l10.3,5.7C12,6.4,12,6.6,11.8,6.8z"/>
	</svg>

	<svg id="icon-pause" viewBox="0 0 13 13">
		<style type="text/css">
			.st0{fill:#333;}
		</style>
		<path class="st0" d="M5,11.7C5,11.9,4.9,12,4.7,12H2.3C2.2,12,2,11.9,2,11.7V1.3C2,1.1,2.2,1,2.3,1h2.3c0.2,0,0.3,0.2,0.3,0.3
			L5,11.7z"/>
		<path class="st0" d="M11,11.7c0,0.2-0.2,0.3-0.3,0.3H8.3C8.2,12,8,11.9,8,11.7V1.3C8,1.1,8.2,1,8.3,1h2.4C10.9,1,11,1.1,11,1.3
			C11,1.3,11,11.7,11,11.7z"/>
	</svg>

	<svg id="icon-previous" viewBox="0 0 13 13">
		<style type="text/css">
			.st0{fill:#333;}
		</style>
		<path class="st0" d="M3.3,6.3l8.3-4.6c0.2-0.1,0.3,0,0.3,0.2v9.3c0,0.3-0.2,0.3-0.3,0.2L3.3,6.6C3.1,6.5,3.1,6.3,3.3,6.3z"/>
		<path class="st0" d="M1,9.8c0,0.3,0.3,0.5,0.5,0.5h1.2c0.3,0,0.5-0.3,0.5-0.5V3c0-0.3-0.3-0.5-0.5-0.5H1.5C1.3,2.5,1,2.8,1,3V9.8z"
			/>
	</svg>

	<svg id="icon-next" viewBox="0 0 13 13">
		<style type="text/css">
			.st0{fill:#333;}
		</style>
		<path class="st0" d="M9.7,6.7l-8.2,4.6c-0.3,0.1-0.4,0-0.4-0.2V1.9c0-0.3,0.2-0.3,0.3-0.2l8.2,4.6C9.9,6.4,9.9,6.6,9.7,6.7z"/>
		<path class="st0" d="M11.9,9.9c0,0.3-0.3,0.5-0.5,0.5h-1.2c-0.3,0-0.5-0.3-0.5-0.5V3.2c0-0.3,0.3-0.5,0.5-0.5h1.2
			c0.3,0,0.5,0.3,0.5,0.5V9.9L11.9,9.9z"/>
	</svg>

	<svg id="icon-random" viewBox="0 0 13 13">
		<style type="text/css">
			.st0{fill:#333;}
		</style>
		<path class="st0" d="M9.3,4.4h0.5v1.8L12,3.6L9.8,1.1v1.5H9.3c-2.1,0-3.2,1.8-4.2,3.3C4.2,7.3,3.4,8.4,2.2,8.4H1v1.8h1.2
			c2.1,0,3.2-1.7,4.2-3.3C7.2,5.6,8,4.4,9.3,4.4L9.3,4.4z M4,5.5c0.1-0.1,0.1-0.3,0.2-0.3c0.2-0.3,0.4-0.7,0.7-1
			C4.2,3.4,3.3,2.8,2.2,2.8H1v1.8h1.2C2.9,4.6,3.5,4.9,4,5.5z M9.8,8.6H9.3c-0.8,0-1.4-0.4-1.9-1.1C7.3,7.6,7.2,7.7,7.2,7.8
			C7,8.1,6.7,8.5,6.4,8.9c0.7,0.8,1.6,1.4,2.9,1.4h0.5v1.5L12,9.4L9.8,6.8V8.6L9.8,8.6z"/>
	</svg>

	<svg id="icon-repeat" viewBox="0 0 13 13">
		<style type="text/css">
			.st0{fill:#333;}
		</style>
		<path class="st0" d="M10.7,3.1L8.1,0.6L7.3,1.5l1.2,1.2H4.8c-1.1,0-2,0.4-2.7,1.1C1.3,4.5,0.9,5.5,0.9,6.5h1.2
			c0-1.4,1.2-2.7,2.7-2.7h3.5l-0.9,1l0.9,0.9L10.7,3.1z M5,7.4L2.5,9.9L5,12.4l0.9-0.9l-1.2-1.2h3.7c1,0,2-0.4,2.7-1.1
			c0.7-0.7,1.1-1.7,1.1-2.7h-1.2c0,1.4-1.2,2.7-2.7,2.7H4.8l1-1L5,7.4z"/>
	</svg>

	<svg id="icon-volume-0" viewBox="0 0 13 13">
		<style type="text/css">
			.st0{fill:#333;}
		</style>
		<path class="st0" d="M8.4,10.7c-0.1,0-0.1,0-0.2-0.1L6.3,8.5H4.7c-0.2,0-0.4-0.2-0.4-0.3V4.9c0-0.1,0.1-0.2,0.4-0.2h1.7l1.9-2.2
			c0.1-0.1,0.2-0.1,0.4-0.1c0.1,0.1,0.1,0.2,0.1,0.3v7.6C8.7,10.4,8.6,10.5,8.4,10.7C8.6,10.7,8.4,10.7,8.4,10.7z"/>
	</svg>

	<svg id="icon-volume-3" viewBox="0 0 13 13">
		<style type="text/css">
			.st0{fill:#333;}
		</style>
		<path class="st0" d="M10.5,11.7c-0.1,0-0.4-0.1-0.4-0.1c-0.2-0.2-0.2-0.7,0-0.9c1.2-1.2,1.8-2.5,1.8-4.2s-0.7-3-1.8-4.2
			C9.8,2.1,9.8,1.8,10,1.5s0.7-0.2,0.9,0c1.3,1.3,2,3.1,2,5s-0.7,3.7-2.1,5C10.8,11.6,10.5,11.7,10.5,11.7L10.5,11.7z"/>
		<path class="st0" d="M8.2,10.5c-0.1,0-0.4-0.1-0.4-0.1c-0.2-0.2-0.2-0.7,0-0.9c1.7-1.6,1.7-4.4,0-6c-0.2-0.2-0.2-0.7,0-0.9
			c0.2-0.2,0.7-0.2,0.9,0c1.1,1,1.5,2.4,1.5,3.9s-0.5,2.9-1.5,3.9C8.5,10.4,8.4,10.5,8.2,10.5L8.2,10.5L8.2,10.5z"/>
		<path class="st0" d="M6,9.4c-0.2,0-0.4-0.1-0.5-0.2c-0.2-0.2-0.2-0.7,0-0.9c1.1-1,1.1-2.7,0-3.7c-0.2-0.2-0.2-0.7,0-0.9
			c0.2,0,0.7,0,0.9,0.2C8,5.3,8,7.8,6.5,9.3C6.4,9.4,6.1,9.4,6,9.4z"/>
		<path class="st0" d="M4.1,10.7c-0.1,0-0.1,0-0.2-0.1L2,8.5H0.4C0.1,8.5,0,8.2,0,8.1V4.9c0-0.1,0.1-0.2,0.4-0.2H2l1.9-2.2
			C4,2.3,4.1,2.3,4.3,2.3c0.1,0.1,0.1,0.2,0.1,0.3v7.6C4.4,10.4,4.3,10.5,4.1,10.7C4.3,10.7,4.1,10.7,4.1,10.7z"/>
	</svg>

	<svg id="icon-collapse" viewBox="0 0 13 13">
		<style type="text/css">
			.st0{fill:#333;}
		</style>
		<path class="st0" d="M5.5,7.9v2.7c0,0.2-0.2,0.3-0.3,0.3c-0.1,0-0.2,0-0.3-0.1L4,10l-2,2c0,0-0.1,0.1-0.2,0.1c-0.1,0-0.1,0-0.2-0.1
			l-0.7-0.7c0,0-0.1-0.1-0.1-0.1s0-0.1,0.1-0.2l2-2L2.1,8.2C2,8.1,2,8,2,7.9c0-0.2,0.2-0.3,0.3-0.3H5C5.3,7.6,5.5,7.8,5.5,7.9z"/>
		<path class="st0" d="M8,7.6h2.7c0.2,0,0.3,0.2,0.3,0.3c0,0.1,0,0.2-0.1,0.3l-0.9,0.9l2,2c0,0,0.1,0.1,0.1,0.2s0,0.1-0.1,0.2
			l-0.7,0.7c0,0-0.1,0.1-0.2,0.1s-0.1,0-0.2-0.1l-2-2L8.2,11c-0.1,0.1-0.2,0.1-0.3,0.1c-0.2,0-0.3-0.2-0.3-0.3V8
			C7.5,7.8,7.7,7.6,8,7.6z"/>
		<path class="st0" d="M5,5.3H2.3C2.1,5.3,2,5.1,2,5c0-0.1,0-0.2,0.1-0.3l0.9-0.9l-2-2c0-0.1-0.1-0.1-0.1-0.2s0-0.1,0.1-0.2l0.7-0.7
			c0,0,0.1,0,0.2,0c0.1,0,0.1,0,0.2,0.1l2,2L4.8,2C4.9,1.9,5,1.9,5.1,1.9c0.2,0,0.3,0.2,0.3,0.3V5C5.5,5.1,5.3,5.3,5,5.3z"/>
		<path class="st0" d="M7.5,5V2.3c0-0.2,0.2-0.3,0.3-0.3c0.1,0,0.2,0,0.3,0.1L9,2.9l2-2c0,0,0.1-0.1,0.2-0.1s0.1,0,0.2,0.1l0.7,0.7
			c0,0,0.1,0.1,0.1,0.1c0,0.1,0,0.1-0.1,0.2l-2,2l0.9,0.9C11,4.8,11,4.9,11,5c0,0.2-0.2,0.3-0.3,0.3H8C7.7,5.3,7.5,5.1,7.5,5z"/>
	</svg>

	<svg id="icon-equalizer" viewBox="0 0 13 13">
		<style type="text/css">
			.st0{fill:#333;}
		</style>
		<path class="st0" d="M7.2,1.6c0-0.3-0.3-0.7-0.7-0.7S5.8,1.2,5.8,1.6v6.3H5.1v1.4h0.7v2.1c0,0.3,0.3,0.7,0.7,0.7s0.7-0.3,0.7-0.7
			V9.3h0.7V7.9H7.2V1.6z M3,1.6c0-0.3-0.3-0.7-0.7-0.7S1.6,1.2,1.6,1.6v3.5H0.9v1.4h0.7v4.9c0,0.3,0.3,0.7,0.7,0.7S3,11.8,3,11.4V6.5
			h0.7V5.1H3V1.6z M12.1,3.7h-0.7V1.6c0-0.3-0.3-0.7-0.7-0.7S10,1.2,10,1.6v2.1H9.4V5H10v6.3c0,0.3,0.3,0.7,0.7,0.7s0.7-0.3,0.7-0.7
			V5.1h0.7V3.7z"/>
	</svg>

	<svg id="icon-folder" viewBox="0 0 17 17">
		<style type="text/css">
			.st0{fill:#333;}
		</style>
		<path class="st0" d="M15,6.5v6.1c0,1-0.5,1.5-1.4,1.5h-10c-1,0-1.6-0.5-1.6-1.5V4.4C2,3.4,2.3,3,3.3,3h3.4C7.6,3,8,3.4,8,4.3V5h5.5
			C14.5,5,15,5.5,15,6.5z"/>
	</svg>

	<svg id="icon-arrow" viewBox="0 0 13 13">
		<style type="text/css">
			.st0{fill:#333;}
		</style>
		<path class="st0" d="M9.5,6.6l-6.2,3.8c-0.2,0.1-0.2,0-0.2-0.2V2.7c0-0.2,0.1-0.3,0.2-0.2l6.2,3.8C9.6,6.4,9.6,6.5,9.5,6.6z"/>
	</svg>
	
	<svg id="icon-magnify" viewBox="0 0 13 13">
		<style type="text/css">
			.st0{fill:#333;}
		</style>
		<path class="st0" d="M11.8,10.3L9.3,7.9C9.7,7.2,10,6.4,10,5.5C10,3,8,1,5.5,1S1,3,1,5.5S3,10,5.5,10c0.9,0,1.7-0.3,2.4-0.7l2.5,2.5 c0.3,0.3,0.8,0.3,1.2,0l0.3-0.3C12.1,11.2,12.1,10.7,11.8,10.3z M2.8,5.5C2.8,4,4,2.8,5.5,2.8S8.2,4,8.2,5.5S7,8.2,5.5,8.2 S2.8,7,2.8,5.5z"/>
	</svg>

	<svg id="icon-clock" viewBox="0 0 15 15">
		<style type="text/css">
			.st0{fill:#333;}
		</style>
		<path class="st0" d="M7.5,14c3.6,0,6.5-2.9,6.5-6.5C14,3.9,11.1,1,7.5,1C3.9,1,1,3.9,1,7.5S3.9,14,7.5,14z M7.5,2.3
			c2.9,0,5.2,2.3,5.2,5.2s-2.3,5.2-5.2,5.2s-5.2-2.3-5.2-5.2S4.6,2.3,7.5,2.3z"/>
		<path class="st0" d="M6.9,7.6C6.9,7.6,6.9,7.7,6.9,7.6c0,0.1,0,0.1,0,0.1c0,0,0,0,0,0.1c0,0,0,0,0,0.1C7,7.9,7,7.9,7,8c0,0,0,0,0,0
			l2.6,2.6c0.3,0.3,0.7,0.3,0.9,0c0.3-0.3,0.3-0.7,0-0.9L8.2,7.2V4.6C8.2,4.3,7.9,4,7.5,4C7.1,4,6.8,4.3,6.8,4.6v2.9
			C6.8,7.5,6.9,7.6,6.9,7.6z"/>
	</svg>

	<svg id="icon-heart" viewBox="0 0 17 17">
		<style type="text/css">
			.st0{fill:#f00;}
		</style>
		<path class="st0" d="M15,6c0-2.4-1.6-2.9-3-2.9c-1.3,0-2.7,1.4-3.1,1.9C8.7,5.2,8.3,5.2,8.1,5C7.6,4.5,6.2,3.1,5,3.1
			C3.6,3.1,2,3.6,2,6c0,1.5,1.6,3,1.6,3l4.9,4.7L13.4,9C13.4,8.9,15,7.5,15,6z M16.1,6c0,2-1.9,3.7-1.9,3.8l-5.3,5.1
			C8.8,14.9,8.6,15,8.5,15s-0.3-0.1-0.4-0.2L2.9,9.7C2.8,9.7,0.9,8,0.9,6c0-2.5,1.5-4,4-4c1.5,0,2.9,1.2,3.5,1.8C9.2,3.2,10.6,2,12,2
			C14.6,2,16.1,3.5,16.1,6z"/>
	</svg>

	<svg id="icon-heart-full" viewBox="0 0 17 17">
		<style type="text/css">
			.st0{fill:#f00;}
		</style>
		<path class="st0" d="M16.1,6c0,2-1.9,3.7-1.9,3.8l-5.3,5.1C8.8,14.9,8.6,15,8.5,15s-0.3-0.1-0.4-0.2L2.9,9.7C2.8,9.7,0.9,8,0.9,6
			c0-2.5,1.5-4,4-4c1.5,0,2.9,1.2,3.5,1.8C9.2,3.2,10.6,2,12,2C14.6,2,16.1,3.5,16.1,6z"/>
	</svg>

	<svg id="icon-bars" viewBox="0 0 32 9">
		<style type="text/css">
			.st0{fill:#aaa;}
		</style>
		<rect class="st0" x="1" width="2" height="9"/>
		<rect class="st0" x="5" width="2" height="9"/>
		<rect class="st0" x="9" width="2" height="9"/>
		<rect class="st0" x="13" width="2" height="9"/>
		<rect class="st0" x="17" width="2" height="9"/>
		<rect class="st0" x="21" width="2" height="9"/>
		<rect class="st0" x="25" width="2" height="9"/>
		<rect class="st0" x="29" width="2" height="9"/>
	</svg>

	<svg id="icon-chevron-left" viewBox="0 0 13 13">
		<style type="text/css">
			.st0{fill:#333;}
		</style>
		<path class="st0" d="M8.9,12c-0.2,0-0.4-0.1-0.6-0.2L3.6,7C3.4,6.9,3.3,6.7,3.3,6.5c0-0.2,0.1-0.4,0.2-0.6l4.7-4.7
			c0.3-0.3,0.8-0.3,1.1,0c0.3,0.3,0.3,0.8,0,1.1L5.2,6.5l4.2,4.2c0.3,0.3,0.3,0.8,0,1.1C9.3,11.9,9.1,12,8.9,12z"/>
	</svg>

	<svg id="icon-chevron-right" viewBox="0 0 13 13">
		<style type="text/css">
			.st0{fill:#333;}
		</style>
		<path class="st0" d="M4.2,12c-0.2,0-0.4-0.1-0.5-0.2c-0.3-0.3-0.3-0.8,0-1.1l4.1-4.1L3.6,2.4c-0.3-0.3-0.3-0.8,0-1.1
			C3.9,1,4.4,1,4.7,1.3L9.4,6c0.1,0.1,0.2,0.3,0.2,0.5c0,0.2-0.1,0.4-0.2,0.5l-4.7,4.7C4.6,11.9,4.4,12,4.2,12z"/>
	</svg>

</svg>
