<svg xmlns="http://www.w3.org/2000/svg" width="0" height="0">

	<svg id="icon-play" viewBox="0 0 17 17">
		<path fill="#333" d="M14.8,8.8L2.5,15.6c-0.3,0.2-0.5,0-0.5-0.3V1.7c0-0.3,0.2-0.5,0.5-0.3l12.2,6.8C15.1,8.4,15.1,8.6,14.8,8.8z" />
	</svg>

	<svg id="icon-pause" viewBox="0 0 17 17">
		<path fill="#333" d="M6.1,14.6c0,0.2-0.2,0.4-0.4,0.4H3.3c-0.2,0-0.4-0.2-0.4-0.4V2.4C2.9,2.2,3.1,2,3.3,2h2.3 c0.2,0,0.4,0.2,0.4,0.4V14.6z"/>
		<path fill="#333" d="M14.1,14.6c0,0.2-0.2,0.4-0.4,0.4h-2.3c-0.2,0-0.4-0.2-0.4-0.4V2.4C11,2.2,11.2,2,11.4,2h2.3 c0.2,0,0.4,0.2,0.4,0.4V14.6z"/>
	</svg>

	<svg id="icon-previous" viewBox="0 0 17 17">
		<path fill="#333" d="M4.7,8.3l9.8-5.4c0.2-0.1,0.4,0,0.4,0.2v10.9c0,0.3-0.2,0.4-0.4,0.2L4.7,8.7C4.5,8.6,4.5,8.4,4.7,8.3z"/>
		<path fill="#333" d="M2,12.5c0,0.3,0.3,0.6,0.6,0.6H4c0.3,0,0.6-0.3,0.6-0.6v-8c0-0.3-0.3-0.6-0.6-0.6H2.6C2.3,3.9,2,4.2,2,4.5 C2,4.5,2,12.5,2,12.5z"/>
	</svg>

	<svg id="icon-next" viewBox="0 0 17 17">
		<path fill="#333" d="M12.3,8.7l-9.8,5.5C2.2,14.3,2,14.2,2,14V3c0-0.3,0.2-0.4,0.4-0.2l9.8,5.5C12.5,8.4,12.5,8.6,12.3,8.7z"/>
		<path fill="#333" d="M15,12.5c0,0.3-0.3,0.6-0.6,0.6H13c-0.3,0-0.6-0.3-0.6-0.6v-8c0-0.3,0.3-0.6,0.6-0.6h1.4 c0.3,0,0.6,0.3,0.6,0.6V12.5L15,12.5z"/>
	</svg>

	<svg id="icon-random" viewBox="0 0 17 17">
		<path fill="#333" d="M12.3,6H13v2.1l3-3l-3-3v1.8h-0.7C9.5,3.9,8,6,6.6,7.8c-1.2,1.6-2.3,3-4,3H1v2.1h1.6c2.8,0,4.3-2,5.7-3.9 C9.5,7.4,10.6,6,12.3,6L12.3,6z M5.1,7.3C5.2,7.2,5.3,7,5.4,6.9C5.7,6.5,6,6.1,6.4,5.7c-1-0.9-2.2-1.6-3.8-1.6H1v2.1h1.6 C3.6,6.2,4.4,6.6,5.1,7.3z M13,11h-0.7c-1.1,0-1.9-0.5-2.6-1.3C9.6,9.8,9.5,9.9,9.5,10c-0.3,0.4-0.7,0.9-1.1,1.4 c1,1,2.2,1.7,3.9,1.7H13v1.8l3-3l-3-3V11L13,11z"/>
	</svg>

	<svg id="icon-repeat" viewBox="0 0 17 17">
		<path fill="#333" d="M13.8,4.2L10.5,1L9.5,2.1L11,3.6l-4.7,0C4.9,3.6,3.7,4.1,2.8,5C1.8,5.9,1.3,7.2,1.3,8.5l1.5,0 c0-1.8,1.6-3.4,3.4-3.4h4.5L9.5,6.4l1.1,1.1L13.8,4.2z M6.5,9.6l-3.2,3.2L6.5,16l1.1-1.1L6,13.4l4.7,0c1.3,0,2.6-0.5,3.5-1.4 c0.9-0.9,1.4-2.2,1.4-3.5l-1.5,0c0,1.8-1.6,3.4-3.4,3.4H6.3l1.3-1.3L6.5,9.6z"/>
	</svg>

	<svg id="icon-volume-0" viewBox="0 0 16 16">
		<path fill="#333" d="M5.1,13.2c-0.1,0-0.2,0-0.3-0.1l-2.3-2.7H0.4C0.2,10.4,0,10.2,0,10V6c0-0.2,0.2-0.4,0.4-0.4h2.1l2.3-2.7 c0.1-0.1,0.3-0.1,0.4-0.1c0.2,0.1,0.2,0.2,0.2,0.4v9.6c0,0.2-0.1,0.3-0.2,0.4C5.2,13.2,5.1,13.2,5.1,13.2z"/>
	</svg>

	<svg id="icon-volume-3" viewBox="0 0 16 16">
		<path fill="#333" d="M12.9,14.5c-0.2,0-0.4-0.1-0.5-0.2c-0.3-0.3-0.3-0.8,0-1.1c1.4-1.4,2.2-3.2,2.2-5.2c0-2-0.8-3.8-2.2-5.2 C12,2.5,12,2,12.3,1.7c0.3-0.3,0.8-0.3,1.1,0C15.1,3.4,16,5.6,16,8s-0.9,4.6-2.6,6.3C13.2,14.4,13,14.5,12.9,14.5L12.9,14.5z"/>
		<path fill="#333" d="M10.1,13.1c-0.2,0-0.4-0.1-0.5-0.2c-0.3-0.3-0.3-0.8,0-1.1c2.1-2.1,2.1-5.5,0-7.6c-0.3-0.3-0.3-0.8,0-1.1 c0.3-0.3,0.8-0.3,1.1,0c1.3,1.3,2,3,2,4.9s-0.7,3.6-2,4.9C10.5,13,10.3,13.1,10.1,13.1L10.1,13.1L10.1,13.1z"/>
		<path fill="#333" d="M7.4,11.6c-0.2,0-0.4-0.1-0.5-0.2c-0.3-0.3-0.3-0.8,0-1.1C8.2,9,8.2,7,6.9,5.7c-0.3-0.3-0.3-0.8,0-1.1 c0.3-0.3,0.8-0.3,1.1,0c1.9,1.9,1.9,4.9,0,6.8C7.8,11.6,7.6,11.6,7.4,11.6z"/>
		<path fill="#333" d="M5.1,13.2c-0.1,0-0.2,0-0.3-0.1l-2.3-2.7H0.4C0.2,10.4,0,10.2,0,10V6c0-0.2,0.2-0.4,0.4-0.4h2.1l2.3-2.7 c0.1-0.1,0.3-0.1,0.4-0.1c0.2,0.1,0.2,0.2,0.2,0.4v9.6c0,0.2-0.1,0.3-0.2,0.4C5.2,13.2,5.1,13.2,5.1,13.2z"/>
	</svg>

	<svg id="icon-collapse" viewBox="0 0 17 17">
		<path fill="#333" d="M7.3,10.2v3.1c0,0.2-0.2,0.4-0.4,0.4c-0.1,0-0.2,0-0.3-0.1l-1-1l-2.3,2.3c0,0-0.1,0.1-0.2,0.1 c-0.1,0-0.1,0-0.2-0.1l-0.8-0.8C2.1,14.1,2,14,2,14s0-0.1,0.1-0.2l2.3-2.3l-1-1c-0.1-0.1-0.1-0.2-0.1-0.3c0-0.2,0.2-0.4,0.4-0.4 h3.1C7.1,9.8,7.3,10,7.3,10.2z"/>
		<path fill="#333" d="M10.2,9.8h3.1c0.2,0,0.4,0.2,0.4,0.4c0,0.1,0,0.2-0.1,0.3l-1,1l2.3,2.3c0,0,0.1,0.1,0.1,0.2s0,0.1-0.1,0.2 l-0.8,0.8c0,0-0.1,0.1-0.2,0.1s-0.1,0-0.2-0.1l-2.3-2.3l-1,1c-0.1,0.1-0.2,0.1-0.3,0.1c-0.2,0-0.4-0.2-0.4-0.4v-3.1 C9.7,10,9.9,9.8,10.2,9.8z"/>
		<path fill="#333" d="M6.8,7.2H3.7C3.5,7.2,3.3,7,3.3,6.8c0-0.1,0-0.2,0.1-0.3l1-1L2.1,3.2C2.1,3.1,2,3.1,2,3c0-0.1,0-0.1,0.1-0.2 l0.8-0.8C2.9,2,3,2,3.1,2c0.1,0,0.1,0,0.2,0.1l2.3,2.3l1-1c0.1-0.1,0.2-0.1,0.3-0.1c0.2,0,0.4,0.2,0.4,0.4v3.1 C7.3,7,7.1,7.2,6.8,7.2z"/>
		<path fill="#333" d="M9.7,6.8V3.7c0-0.2,0.2-0.4,0.4-0.4c0.1,0,0.2,0,0.3,0.1l1,1l2.3-2.3c0,0,0.1-0.1,0.2-0.1s0.1,0,0.2,0.1 l0.8,0.8C14.9,2.9,15,3,15,3c0,0.1,0,0.1-0.1,0.2l-2.3,2.3l1,1c0.1,0.1,0.1,0.2,0.1,0.3c0,0.2-0.2,0.4-0.4,0.4h-3.1 C9.9,7.2,9.7,7,9.7,6.8z"/>
	</svg>

	<svg id="icon-equalizer" viewBox="0 0 17 17">
		<path fill="#333" d="M9.3,2.8C9.3,2.4,8.9,2,8.5,2C8.1,2,7.7,2.4,7.7,2.8v7.3H6.9v1.6h0.8v2.4c0,0.4,0.4,0.8,0.8,0.8 c0.4,0,0.8-0.4,0.8-0.8v-2.4h0.8v-1.6H9.3V2.8z M4.4,2.8C4.4,2.4,4.1,2,3.6,2S2.8,2.4,2.8,2.8v4.1H2v1.6h0.8v5.7 c0,0.4,0.4,0.8,0.8,0.8s0.8-0.4,0.8-0.8V8.5h0.8V6.9H4.4V2.8z M15,5.3h-0.8V2.8c0-0.4-0.4-0.8-0.8-0.8s-0.8,0.4-0.8,0.8v2.4h-0.8 v1.6h0.8v7.3c0,0.4,0.4,0.8,0.8,0.8s0.8-0.4,0.8-0.8V6.9H15V5.3z"/>
	</svg>

</svg>
